<svg height='300px' width='300px'  fill="#000000" xmlns="http://www.w3.org/2000/svg" data-name="Layer 1" viewBox="0 0 100 100" x="0px" y="0px"><title>Artboard 1</title><path d="M78.44,92.33H4.24V17.9L21.56,7.67H95.76V82.1ZM5.76,90.81H78l16.21-9.58v-72H22L5.76,18.77Z"></path><polygon points="95 82.43 21 82.43 21 8.43 22.53 8.43 22.53 80.9 95 80.9 95 82.43"></polygon><polygon points="79 91.57 77.47 91.57 77.47 19.1 5 19.1 5 17.57 79 17.57 79 91.57"></polygon><rect x="76.88" y="12.62" width="19.47" height="1.52" transform="translate(5.23 45.92) rotate(-30.57)"></rect><rect x="3.65" y="85.86" width="19.47" height="1.52" transform="translate(-42.2 18.85) rotate(-30.57)"></rect><path d="M39.41,45.37l5.85.44s-1.37-12-2.92-14.4-5.26-1.15-5.52-.52a8,8,0,0,0,0,3.41C37,35.49,39.41,45.37,39.41,45.37Z"></path><path d="M46.82,45.81s-.44-4.15.7-4.41,3.29.11,4.11,1.07,1,4.78,1,5.29a15.37,15.37,0,0,1,.19,2.75,2.19,2.19,0,0,1-1.18,1.54c-.3,0-1.72.07-1.84-.15s.18-.78.47-.93.48-1.7.44-2.37-.28-2.26-.92-2.46A22.86,22.86,0,0,0,46.82,45.81Z"></path><path d="M53,44.11a29.08,29.08,0,0,1,.67,3.7c0,.89-.48,3.78,0,4.07a9.33,9.33,0,0,0,3,.74,2.91,2.91,0,0,0,1.55-1.85c0-.63.3-6,0-6.66s-.93-1.59-1.41-1.74a5.29,5.29,0,0,0-2-.37C54.41,42.15,53,43.07,53,44.11Z"></path><path d="M60.85,52.1c.22-.84,3.41-9,3.41-11.87a5.12,5.12,0,0,0-3.07-4.52,5,5,0,0,0-2.07,2.67c-.19,1-.76,4.33-.76,4.33a2.92,2.92,0,0,1,.9,1.3,63.57,63.57,0,0,1-.11,6.53A11.2,11.2,0,0,1,57.92,53c-.22.26.74,1,.81,1.59s-.37,2.7-1.41,3-3.33,1.18-4.89-.78S52,53.63,50.37,53.7s-2,.63-2.33,1.22-.7,3.29-3.29,3.18-4.33-1-4.44-3.07.56-2.45,1.07-2.39a36.11,36.11,0,0,0,6-.31c1-.3,2.48-2.17,1.48-5,0,0-7.37-.28-8.66-.59s-2.7,1.36-2.92,1.69a16.35,16.35,0,0,0-1.52,5.81A6.74,6.74,0,0,0,39,60.4c2.78,1.81,4.81,2.7,4.78,2.92s.19.67-.22.74-1.59-.19-1.92,0A1.64,1.64,0,0,0,41,65.29a17.85,17.85,0,0,0,0,2.81c.13.52.13.67.57.81a10.76,10.76,0,0,0,2.78.3c.3-.11.37-3,.63-3.15s1.07-.3,1.33.22.57.93.47,1.33-.36,1.92-.17,2a16.13,16.13,0,0,0,3,.26,1.08,1.08,0,0,0,.56-.74c.07-.33,0-2.52.22-2.59a.65.65,0,0,1,.81.37,9,9,0,0,1,.33,1.92c0,.59-.22.92,0,1.05a6.64,6.64,0,0,0,2.89-.27c.22-.3.07-2.7.48-2.85a.71.71,0,0,1,.82.41,3.07,3.07,0,0,1,.4,1.67.65.65,0,0,0,.85.7,2.15,2.15,0,0,0,1.78-.81c.52-.85.52-3.7.44-4s-1,.78-1.44.59-.07-.93.65-1.59a7.57,7.57,0,0,0,2.5-5C61,56.22,60.62,52.94,60.85,52.1ZM50.28,63.32c-.9-.11-2.23-.69-2.42-1.45-.23-.92,1.45-4,2.25-4s2.71,3.35,2.59,4A2.62,2.62,0,0,1,50.28,63.32Z"></path><ellipse cx="50" cy="86.71" rx="11.3" ry="1.32"></ellipse></svg>